<?xml version="1.0" encoding="UTF-8"?><svg id="_イヤー_2" xmlns="http://www.w3.org/2000/svg" viewBox="0 0 61.12 65.2"><g id="DESIGN"><path d="M60.26,65.2h-9.85c-.47,0-.86-.38-.86-.86,0,0,1.22-26.94,1.22-30.45s-1.22-11.21-1.22-11.21c0-.47,.38-.86,.86-.86h9.85c.47,0,.86,.38,.86,.86,0,0-1.22,7.7-1.22,11.21s1.22,30.45,1.22,30.45c0,.47-.38,.86-.86,.86Zm-1.34-46.42v-1.77c0-.2-.17-.37-.37-.37h-6.43c-.2,0-.37,.17-.37,.37v1.77c0,.2,.17,.37,.37,.37h6.43c.2,0,.37-.17,.37-.37ZM61.12,.96V13.1c0,.47-.38,.84-.84,.84h-9.88c-.47,0-.84-.38-.84-.84V.96c0-.47,.38-.84,.84-.84h9.88c.47,0,.84,.38,.84,.84Zm-2.53,6.07c0-1.79-1.45-3.25-3.25-3.25s-3.25,1.45-3.25,3.25,1.45,3.25,3.25,3.25,3.25-1.45,3.25-3.25ZM10.18,57.43c-.25-.58-.59-1.08-1.02-1.51s-.94-.77-1.51-1.02c-.58-.25-1.21-.38-1.89-.38s-1.31,.13-1.89,.38c-.58,.25-1.08,.59-1.49,1.02-.42,.43-.75,.93-1,1.51-.25,.58-.38,1.19-.38,1.85s.13,1.31,.38,1.89c.25,.58,.58,1.08,1,1.51,.42,.43,.91,.77,1.49,1.02,.58,.25,1.21,.38,1.89,.38,1.36,0,2.51-.46,3.42-1.38,.92-.92,1.38-2.06,1.38-3.42,0-.65-.13-1.27-.38-1.85ZM10.72,0H.84c-.47,0-.84,.38-.84,.84V50.2c0,.46,.38,.84,.84,.84h0c5.92,0,10.72-4.8,10.72-10.72V.84c0-.46-.38-.84-.84-.84ZM43.15,22.31c.36-.61,.56-1.3,.58-2.01,.36-9.17,.87-19.44,.87-19.44,0-.47-.38-.86-.86-.86h-9.85c-.47,0-.86,.38-.86,.86,0,0,.9,18.11,1.15,27.71,0,.34,.33,.6,.67,.51,3.99-1,6.61-3.87,8.29-6.77Zm-15.07,6.24V.86c0-.47-.38-.86-.86-.86h-9.85c-.47,0-.86,.38-.86,.86V34.33c0,.47,.57,.72,.91,.4,2.97-2.8,6.27-4.52,9.76-5.1,.52-.09,.89-.55,.89-1.08Zm14.44,1.59c-2.02,1.7-4.46,3.01-7.38,3.58-.51,.1-.9,.52-.91,1.05-.18,8.93-1.19,29.46-1.19,29.46,0,.47,.38,.86,.86,.86h9.85c.47,0,.86-.38,.86-.86,0,0-1.22-24.67-1.22-31.69,0-.56,0-1.22,.02-1.98,0-.46-.53-.72-.88-.42Zm-26,14.3v14.63c0,3.17,2.44,5.93,5.6,6.02,3.27,.1,5.96-2.53,5.96-5.78v-23.82c0-.71-.68-1.25-1.36-1.06-4.12,1.15-7.27,4.42-9.43,7.53-.5,.72-.77,1.59-.77,2.47Z"/></g></svg>